# xmcd
#
# Track frame offsets: 
#        150
#        14794
#        31075
#        46527
#        64180
#        85119
#        101592
#        118350
#        136597
#        154339
#
# Disc length: 2332 seconds
#
# Revision: 1
# Processed by: cddbd v1.5.2PL0 Copyright (c) Steve Scherf et al.
# Submitted via: ExactAudioCopyFreeDBPlugin 1.0
#
DISCID=7b091a0a
DTITLE=Gasellit - Kiittämätön
DYEAR=2012
DGENRE=Hip-Hop
TTITLE0=Ime Huiluu
TTITLE1=Hiki (feat. Villegalle)
TTITLE2=Sydämetön Panomies
TTITLE3=Toivottu Ku Tulehdus (feat. Pasi Saasta)
TTITLE4=Onneks Olkoon
TTITLE5=Pillist Kii (feat. Tohtori Käärme)
TTITLE6=Kaikki Tai Ei Mitään (feat. Jodarok)
TTITLE7=Ahtaalla
TTITLE8=Vitusti
TTITLE9=Kiittämätön Nilkki
EXTD=
EXTT0=
EXTT1=
EXTT2=
EXTT3=
EXTT4=
EXTT5=
EXTT6=
EXTT7=
EXTT8=
EXTT9=
PLAYORDER=
